<mxfile host="app.diagrams.net" modified="2020-08-28T12:45:22.944Z" agent="5.0 (Windows NT 10.0; Win64; x64) AppleWebKit/537.36 (KHTML, like Gecko) Chrome/84.0.4147.125 Safari/537.36" etag="QmEqJ7vUoukdv8hFloAx" version="13.6.5" type="github">
  <diagram id="R2lEEEUBdFMjLlhIrx00" name="Page-1">
    <mxGraphModel dx="1422" dy="762" grid="1" gridSize="10" guides="1" tooltips="1" connect="1" arrows="1" fold="1" page="1" pageScale="1" pageWidth="850" pageHeight="1100" math="0" shadow="0" extFonts="Permanent Marker^https://fonts.googleapis.com/css?family=Permanent+Marker">
      <root>
        <mxCell id="0" />
        <mxCell id="1" parent="0" />
        <mxCell id="lRCNmeFHzw8-IFRXE7RL-39" value="" style="edgeStyle=orthogonalEdgeStyle;rounded=0;orthogonalLoop=1;jettySize=auto;html=1;endArrow=classic;endFill=1;" edge="1" parent="1" source="lRCNmeFHzw8-IFRXE7RL-1" target="lRCNmeFHzw8-IFRXE7RL-35">
          <mxGeometry relative="1" as="geometry" />
        </mxCell>
        <mxCell id="lRCNmeFHzw8-IFRXE7RL-1" value="House&amp;nbsp;&lt;br&gt;(for sale)" style="rounded=0;whiteSpace=wrap;html=1;" vertex="1" parent="1">
          <mxGeometry x="310" y="357.5" width="90" height="45" as="geometry" />
        </mxCell>
        <mxCell id="lRCNmeFHzw8-IFRXE7RL-3" value="" style="edgeStyle=orthogonalEdgeStyle;rounded=0;orthogonalLoop=1;jettySize=auto;html=1;" edge="1" parent="1" source="lRCNmeFHzw8-IFRXE7RL-2" target="lRCNmeFHzw8-IFRXE7RL-1">
          <mxGeometry relative="1" as="geometry" />
        </mxCell>
        <mxCell id="lRCNmeFHzw8-IFRXE7RL-2" value="To be &lt;br&gt;located" style="rhombus;whiteSpace=wrap;html=1;" vertex="1" parent="1">
          <mxGeometry x="450" y="350" width="60" height="60" as="geometry" />
        </mxCell>
        <mxCell id="lRCNmeFHzw8-IFRXE7RL-4" value="(1,1)" style="text;html=1;align=center;verticalAlign=middle;resizable=0;points=[];autosize=1;" vertex="1" parent="1">
          <mxGeometry x="405" y="355" width="40" height="20" as="geometry" />
        </mxCell>
        <mxCell id="lRCNmeFHzw8-IFRXE7RL-9" style="edgeStyle=orthogonalEdgeStyle;rounded=0;orthogonalLoop=1;jettySize=auto;html=1;endArrow=classic;endFill=1;exitX=1;exitY=0.5;exitDx=0;exitDy=0;" edge="1" parent="1" source="lRCNmeFHzw8-IFRXE7RL-2" target="lRCNmeFHzw8-IFRXE7RL-5">
          <mxGeometry relative="1" as="geometry" />
        </mxCell>
        <mxCell id="lRCNmeFHzw8-IFRXE7RL-11" value="" style="edgeStyle=orthogonalEdgeStyle;rounded=0;orthogonalLoop=1;jettySize=auto;html=1;endArrow=classic;endFill=1;" edge="1" parent="1" source="lRCNmeFHzw8-IFRXE7RL-10" target="lRCNmeFHzw8-IFRXE7RL-5">
          <mxGeometry relative="1" as="geometry">
            <Array as="points">
              <mxPoint x="725" y="380" />
            </Array>
          </mxGeometry>
        </mxCell>
        <mxCell id="lRCNmeFHzw8-IFRXE7RL-5" value="Neighborhood" style="whiteSpace=wrap;html=1;" vertex="1" parent="1">
          <mxGeometry x="560" y="355" width="90" height="50" as="geometry" />
        </mxCell>
        <mxCell id="lRCNmeFHzw8-IFRXE7RL-8" value="(1,N)" style="text;html=1;align=center;verticalAlign=middle;resizable=0;points=[];autosize=1;" vertex="1" parent="1">
          <mxGeometry x="510" y="355" width="40" height="20" as="geometry" />
        </mxCell>
        <mxCell id="lRCNmeFHzw8-IFRXE7RL-13" value="" style="edgeStyle=orthogonalEdgeStyle;rounded=0;orthogonalLoop=1;jettySize=auto;html=1;endArrow=classic;endFill=1;" edge="1" parent="1" source="lRCNmeFHzw8-IFRXE7RL-10" target="lRCNmeFHzw8-IFRXE7RL-12">
          <mxGeometry relative="1" as="geometry" />
        </mxCell>
        <mxCell id="lRCNmeFHzw8-IFRXE7RL-10" value="Part&amp;nbsp;&lt;br&gt;of" style="rhombus;whiteSpace=wrap;html=1;" vertex="1" parent="1">
          <mxGeometry x="700" y="390" width="50" height="50" as="geometry" />
        </mxCell>
        <mxCell id="lRCNmeFHzw8-IFRXE7RL-12" value="City" style="whiteSpace=wrap;html=1;" vertex="1" parent="1">
          <mxGeometry x="690" y="480" width="70" height="25" as="geometry" />
        </mxCell>
        <mxCell id="lRCNmeFHzw8-IFRXE7RL-14" value="(N,M)" style="text;html=1;align=center;verticalAlign=middle;resizable=0;points=[];autosize=1;" vertex="1" parent="1">
          <mxGeometry x="715" y="450" width="50" height="20" as="geometry" />
        </mxCell>
        <mxCell id="lRCNmeFHzw8-IFRXE7RL-15" value="(1,1)" style="text;html=1;align=center;verticalAlign=middle;resizable=0;points=[];autosize=1;" vertex="1" parent="1">
          <mxGeometry x="670" y="357.5" width="40" height="20" as="geometry" />
        </mxCell>
        <mxCell id="lRCNmeFHzw8-IFRXE7RL-21" value="" style="edgeStyle=orthogonalEdgeStyle;rounded=0;orthogonalLoop=1;jettySize=auto;html=1;endArrow=classic;endFill=1;entryX=0;entryY=0;entryDx=0;entryDy=0;" edge="1" parent="1" source="lRCNmeFHzw8-IFRXE7RL-17" target="lRCNmeFHzw8-IFRXE7RL-16">
          <mxGeometry relative="1" as="geometry" />
        </mxCell>
        <mxCell id="lRCNmeFHzw8-IFRXE7RL-16" value="House &lt;br&gt;Type" style="whiteSpace=wrap;html=1;" vertex="1" parent="1">
          <mxGeometry x="420" y="510" width="80" height="40" as="geometry" />
        </mxCell>
        <mxCell id="lRCNmeFHzw8-IFRXE7RL-20" value="" style="edgeStyle=orthogonalEdgeStyle;rounded=0;orthogonalLoop=1;jettySize=auto;html=1;endArrow=classic;endFill=1;" edge="1" parent="1" source="lRCNmeFHzw8-IFRXE7RL-17">
          <mxGeometry relative="1" as="geometry">
            <mxPoint x="400" y="403" as="targetPoint" />
            <Array as="points">
              <mxPoint x="400" y="403" />
            </Array>
          </mxGeometry>
        </mxCell>
        <mxCell id="lRCNmeFHzw8-IFRXE7RL-17" value="To be&amp;nbsp;&lt;br&gt;of" style="rhombus;whiteSpace=wrap;html=1;" vertex="1" parent="1">
          <mxGeometry x="375" y="430" width="50" height="50" as="geometry" />
        </mxCell>
        <mxCell id="lRCNmeFHzw8-IFRXE7RL-22" value="(1,1)" style="text;html=1;align=center;verticalAlign=middle;resizable=0;points=[];autosize=1;" vertex="1" parent="1">
          <mxGeometry x="400" y="410" width="40" height="20" as="geometry" />
        </mxCell>
        <mxCell id="lRCNmeFHzw8-IFRXE7RL-23" value="(1,N)" style="text;html=1;align=center;verticalAlign=middle;resizable=0;points=[];autosize=1;" vertex="1" parent="1">
          <mxGeometry x="410" y="480" width="40" height="20" as="geometry" />
        </mxCell>
        <mxCell id="lRCNmeFHzw8-IFRXE7RL-24" value="Owner" style="whiteSpace=wrap;html=1;" vertex="1" parent="1">
          <mxGeometry x="240" y="190" width="70" height="30" as="geometry" />
        </mxCell>
        <mxCell id="lRCNmeFHzw8-IFRXE7RL-26" value="" style="edgeStyle=orthogonalEdgeStyle;rounded=0;orthogonalLoop=1;jettySize=auto;html=1;endArrow=classic;endFill=1;entryX=0;entryY=0;entryDx=0;entryDy=0;" edge="1" parent="1" source="lRCNmeFHzw8-IFRXE7RL-25" target="lRCNmeFHzw8-IFRXE7RL-1">
          <mxGeometry relative="1" as="geometry" />
        </mxCell>
        <mxCell id="lRCNmeFHzw8-IFRXE7RL-27" value="" style="edgeStyle=orthogonalEdgeStyle;rounded=0;orthogonalLoop=1;jettySize=auto;html=1;endArrow=classic;endFill=1;entryX=0.75;entryY=1;entryDx=0;entryDy=0;" edge="1" parent="1" source="lRCNmeFHzw8-IFRXE7RL-25" target="lRCNmeFHzw8-IFRXE7RL-24">
          <mxGeometry relative="1" as="geometry" />
        </mxCell>
        <mxCell id="lRCNmeFHzw8-IFRXE7RL-25" value="Has" style="rhombus;whiteSpace=wrap;html=1;" vertex="1" parent="1">
          <mxGeometry x="290" y="260" width="40" height="40" as="geometry" />
        </mxCell>
        <mxCell id="lRCNmeFHzw8-IFRXE7RL-28" value="(1,1)" style="text;html=1;align=center;verticalAlign=middle;resizable=0;points=[];autosize=1;" vertex="1" parent="1">
          <mxGeometry x="310" y="310" width="40" height="20" as="geometry" />
        </mxCell>
        <mxCell id="lRCNmeFHzw8-IFRXE7RL-29" value="(1,N)" style="text;html=1;align=center;verticalAlign=middle;resizable=0;points=[];autosize=1;" vertex="1" parent="1">
          <mxGeometry x="310" y="230" width="40" height="20" as="geometry" />
        </mxCell>
        <mxCell id="lRCNmeFHzw8-IFRXE7RL-31" value="" style="edgeStyle=orthogonalEdgeStyle;rounded=0;orthogonalLoop=1;jettySize=auto;html=1;endArrow=classic;endFill=1;exitX=1;exitY=0;exitDx=0;exitDy=0;" edge="1" parent="1" source="lRCNmeFHzw8-IFRXE7RL-24" target="lRCNmeFHzw8-IFRXE7RL-30">
          <mxGeometry relative="1" as="geometry">
            <Array as="points">
              <mxPoint x="310" y="170" />
            </Array>
          </mxGeometry>
        </mxCell>
        <mxCell id="lRCNmeFHzw8-IFRXE7RL-32" value="" style="edgeStyle=orthogonalEdgeStyle;rounded=0;orthogonalLoop=1;jettySize=auto;html=1;endArrow=classic;endFill=1;entryX=0;entryY=0;entryDx=0;entryDy=0;" edge="1" parent="1" source="lRCNmeFHzw8-IFRXE7RL-30" target="lRCNmeFHzw8-IFRXE7RL-24">
          <mxGeometry relative="1" as="geometry">
            <Array as="points">
              <mxPoint x="250" y="170" />
              <mxPoint x="250" y="170" />
            </Array>
          </mxGeometry>
        </mxCell>
        <mxCell id="lRCNmeFHzw8-IFRXE7RL-30" value="Costumer" style="rhombus;whiteSpace=wrap;html=1;" vertex="1" parent="1">
          <mxGeometry x="240" y="120" width="70" height="50" as="geometry" />
        </mxCell>
        <mxCell id="lRCNmeFHzw8-IFRXE7RL-33" value="(1,1)" style="text;html=1;align=center;verticalAlign=middle;resizable=0;points=[];autosize=1;" vertex="1" parent="1">
          <mxGeometry x="310" y="160" width="40" height="20" as="geometry" />
        </mxCell>
        <mxCell id="lRCNmeFHzw8-IFRXE7RL-34" value="(0,1)" style="text;html=1;align=center;verticalAlign=middle;resizable=0;points=[];autosize=1;" vertex="1" parent="1">
          <mxGeometry x="200" y="160" width="40" height="20" as="geometry" />
        </mxCell>
        <mxCell id="lRCNmeFHzw8-IFRXE7RL-38" value="" style="edgeStyle=orthogonalEdgeStyle;rounded=0;orthogonalLoop=1;jettySize=auto;html=1;endArrow=classic;endFill=1;exitX=0;exitY=1;exitDx=0;exitDy=0;" edge="1" parent="1" source="lRCNmeFHzw8-IFRXE7RL-24" target="lRCNmeFHzw8-IFRXE7RL-35">
          <mxGeometry relative="1" as="geometry" />
        </mxCell>
        <mxCell id="lRCNmeFHzw8-IFRXE7RL-35" value="To&lt;br&gt;sell" style="rhombus;whiteSpace=wrap;html=1;" vertex="1" parent="1">
          <mxGeometry x="190" y="295" width="50" height="50" as="geometry" />
        </mxCell>
        <mxCell id="lRCNmeFHzw8-IFRXE7RL-37" value="" style="edgeStyle=orthogonalEdgeStyle;rounded=0;orthogonalLoop=1;jettySize=auto;html=1;endArrow=classic;endFill=1;" edge="1" parent="1" source="lRCNmeFHzw8-IFRXE7RL-36" target="lRCNmeFHzw8-IFRXE7RL-35">
          <mxGeometry relative="1" as="geometry" />
        </mxCell>
        <mxCell id="lRCNmeFHzw8-IFRXE7RL-44" value="" style="edgeStyle=orthogonalEdgeStyle;rounded=0;orthogonalLoop=1;jettySize=auto;html=1;endArrow=classic;endFill=1;entryX=0;entryY=1;entryDx=0;entryDy=0;" edge="1" parent="1" source="lRCNmeFHzw8-IFRXE7RL-43" target="lRCNmeFHzw8-IFRXE7RL-36">
          <mxGeometry relative="1" as="geometry" />
        </mxCell>
        <mxCell id="lRCNmeFHzw8-IFRXE7RL-36" value="A Sale" style="whiteSpace=wrap;html=1;" vertex="1" parent="1">
          <mxGeometry x="40" y="260" width="100" height="40" as="geometry" />
        </mxCell>
        <mxCell id="lRCNmeFHzw8-IFRXE7RL-40" value="(1,N)" style="text;html=1;align=center;verticalAlign=middle;resizable=0;points=[];autosize=1;" vertex="1" parent="1">
          <mxGeometry x="130" y="320" width="40" height="20" as="geometry" />
        </mxCell>
        <mxCell id="lRCNmeFHzw8-IFRXE7RL-41" value="(1,N)" style="text;html=1;align=center;verticalAlign=middle;resizable=0;points=[];autosize=1;" vertex="1" parent="1">
          <mxGeometry x="250" y="360" width="40" height="20" as="geometry" />
        </mxCell>
        <mxCell id="lRCNmeFHzw8-IFRXE7RL-42" value="(1,1)" style="text;html=1;align=center;verticalAlign=middle;resizable=0;points=[];autosize=1;" vertex="1" parent="1">
          <mxGeometry x="200" y="230" width="40" height="20" as="geometry" />
        </mxCell>
        <mxCell id="lRCNmeFHzw8-IFRXE7RL-43" value="Made&lt;br&gt;by" style="rhombus;whiteSpace=wrap;html=1;" vertex="1" parent="1">
          <mxGeometry x="30" y="375" width="60" height="60" as="geometry" />
        </mxCell>
        <mxCell id="lRCNmeFHzw8-IFRXE7RL-47" style="edgeStyle=orthogonalEdgeStyle;rounded=0;orthogonalLoop=1;jettySize=auto;html=1;exitX=0.5;exitY=1;exitDx=0;exitDy=0;entryX=0;entryY=0;entryDx=0;entryDy=0;endArrow=classic;endFill=1;" edge="1" parent="1" source="lRCNmeFHzw8-IFRXE7RL-43" target="lRCNmeFHzw8-IFRXE7RL-46">
          <mxGeometry relative="1" as="geometry" />
        </mxCell>
        <mxCell id="lRCNmeFHzw8-IFRXE7RL-46" value="Salesman" style="whiteSpace=wrap;html=1;" vertex="1" parent="1">
          <mxGeometry x="140" y="490" width="100" height="50" as="geometry" />
        </mxCell>
        <mxCell id="lRCNmeFHzw8-IFRXE7RL-48" value="(1,N)" style="text;html=1;align=center;verticalAlign=middle;resizable=0;points=[];autosize=1;" vertex="1" parent="1">
          <mxGeometry x="70" y="470" width="40" height="20" as="geometry" />
        </mxCell>
        <mxCell id="lRCNmeFHzw8-IFRXE7RL-49" value="(1,1)" style="text;html=1;align=center;verticalAlign=middle;resizable=0;points=[];autosize=1;" vertex="1" parent="1">
          <mxGeometry x="20" y="350" width="40" height="20" as="geometry" />
        </mxCell>
        <mxCell id="lRCNmeFHzw8-IFRXE7RL-51" style="edgeStyle=orthogonalEdgeStyle;rounded=0;orthogonalLoop=1;jettySize=auto;html=1;exitX=0;exitY=0.5;exitDx=0;exitDy=0;entryX=1;entryY=1;entryDx=0;entryDy=0;endArrow=classic;endFill=1;" edge="1" parent="1" source="lRCNmeFHzw8-IFRXE7RL-50" target="lRCNmeFHzw8-IFRXE7RL-46">
          <mxGeometry relative="1" as="geometry" />
        </mxCell>
        <mxCell id="lRCNmeFHzw8-IFRXE7RL-52" style="edgeStyle=orthogonalEdgeStyle;rounded=0;orthogonalLoop=1;jettySize=auto;html=1;exitX=1;exitY=0.5;exitDx=0;exitDy=0;entryX=0;entryY=1;entryDx=0;entryDy=0;endArrow=classic;endFill=1;" edge="1" parent="1" source="lRCNmeFHzw8-IFRXE7RL-50" target="lRCNmeFHzw8-IFRXE7RL-16">
          <mxGeometry relative="1" as="geometry" />
        </mxCell>
        <mxCell id="lRCNmeFHzw8-IFRXE7RL-50" value="Specializes&lt;br&gt;in" style="rhombus;whiteSpace=wrap;html=1;" vertex="1" parent="1">
          <mxGeometry x="285" y="580" width="90" height="79" as="geometry" />
        </mxCell>
        <mxCell id="lRCNmeFHzw8-IFRXE7RL-53" value="(1,N)" style="text;html=1;align=center;verticalAlign=middle;resizable=0;points=[];autosize=1;" vertex="1" parent="1">
          <mxGeometry x="245" y="590" width="40" height="20" as="geometry" />
        </mxCell>
        <mxCell id="lRCNmeFHzw8-IFRXE7RL-54" value="(1,N)" style="text;html=1;align=center;verticalAlign=middle;resizable=0;points=[];autosize=1;" vertex="1" parent="1">
          <mxGeometry x="370" y="590" width="40" height="20" as="geometry" />
        </mxCell>
      </root>
    </mxGraphModel>
  </diagram>
</mxfile>
